<svg id="visual" viewBox="0 0 960 540" width="960" height="540" xmlns="http://www.w3.org/2000/svg" xmlns:xlink="http://www.w3.org/1999/xlink" version="1.1"><rect x="0" y="0" width="960" height="540" fill="#001220"></rect><defs><linearGradient id="grad1_0" x1="43.8%" y1="0%" x2="100%" y2="100%"><stop offset="14.444444444444446%" stop-color="#001220" stop-opacity="1"></stop><stop offset="85.55555555555554%" stop-color="#001220" stop-opacity="1"></stop></linearGradient></defs><defs><linearGradient id="grad2_0" x1="0%" y1="0%" x2="56.3%" y2="100%"><stop offset="14.444444444444446%" stop-color="#001220" stop-opacity="1"></stop><stop offset="85.55555555555554%" stop-color="#001220" stop-opacity="1"></stop></linearGradient></defs><g transform="translate(960, 0)"><path d="M0 486C-62.8 478.4 -125.6 470.9 -186 449C-246.4 427.1 -304.4 390.9 -342.2 342.2C-380.1 293.6 -397.9 232.5 -418.5 173.4C-439.1 114.2 -462.6 57.1 -486 0L0 0Z" fill="#3E065F"></path></g><g transform="translate(0, 540)"><path d="M0 -486C65.2 -481.1 130.3 -476.3 186 -449C241.6 -421.7 287.8 -372 321.7 -321.7C355.7 -271.4 377.5 -220.6 402.8 -166.8C428.2 -113.1 457.1 -56.6 486 0L0 0Z" fill="#3E065F"></path></g></svg>