<svg id="visual" viewBox="0 0 900 100" width="900" height="100" xmlns="http://www.w3.org/2000/svg" xmlns:xlink="http://www.w3.org/1999/xlink" version="1.1"><rect x="0" y="0" width="900" height="100" fill="#111"></rect><path d="M0 52L11.5 48.2C23 44.3 46 36.7 69 35.3C92 34 115 39 138.2 46.3C161.3 53.7 184.7 63.3 207.8 63.5C231 63.7 254 54.3 277 47.3C300 40.3 323 35.7 346 37.8C369 40 392 49 415.2 45.5C438.3 42 461.7 26 484.8 21.8C508 17.7 531 25.3 554 33.3C577 41.3 600 49.7 623 51.5C646 53.3 669 48.7 692.2 47C715.3 45.3 738.7 46.7 761.8 49.3C785 52 808 56 831 58.2C854 60.3 877 60.7 888.5 60.8L900 61L900 101L888.5 101C877 101 854 101 831 101C808 101 785 101 761.8 101C738.7 101 715.3 101 692.2 101C669 101 646 101 623 101C600 101 577 101 554 101C531 101 508 101 484.8 101C461.7 101 438.3 101 415.2 101C392 101 369 101 346 101C323 101 300 101 277 101C254 101 231 101 207.8 101C184.7 101 161.3 101 138.2 101C115 101 92 101 69 101C46 101 23 101 11.5 101L0 101Z" fill="#8e05c2"></path><path d="M0 62L11.5 62C23 62 46 62 69 58C92 54 115 46 138.2 47.5C161.3 49 184.7 60 207.8 62.7C231 65.3 254 59.7 277 59C300 58.3 323 62.7 346 59.7C369 56.7 392 46.3 415.2 48C438.3 49.7 461.7 63.3 484.8 65.7C508 68 531 59 554 58.3C577 57.7 600 65.3 623 71.2C646 77 669 81 692.2 81.3C715.3 81.7 738.7 78.3 761.8 71.5C785 64.7 808 54.3 831 49C854 43.7 877 43.3 888.5 43.2L900 43L900 101L888.5 101C877 101 854 101 831 101C808 101 785 101 761.8 101C738.7 101 715.3 101 692.2 101C669 101 646 101 623 101C600 101 577 101 554 101C531 101 508 101 484.8 101C461.7 101 438.3 101 415.2 101C392 101 369 101 346 101C323 101 300 101 277 101C254 101 231 101 207.8 101C184.7 101 161.3 101 138.2 101C115 101 92 101 69 101C46 101 23 101 11.5 101L0 101Z" fill="#58008f"></path><path d="M0 63L11.5 63.8C23 64.7 46 66.3 69 70.5C92 74.7 115 81.3 138.2 85.3C161.3 89.3 184.7 90.7 207.8 88C231 85.3 254 78.7 277 72.8C300 67 323 62 346 64.5C369 67 392 77 415.2 78.8C438.3 80.7 461.7 74.3 484.8 72C508 69.7 531 71.3 554 73.7C577 76 600 79 623 81.3C646 83.7 669 85.3 692.2 85.7C715.3 86 738.7 85 761.8 81.7C785 78.3 808 72.7 831 69.3C854 66 877 65 888.5 64.5L900 64L900 101L888.5 101C877 101 854 101 831 101C808 101 785 101 761.8 101C738.7 101 715.3 101 692.2 101C669 101 646 101 623 101C600 101 577 101 554 101C531 101 508 101 484.8 101C461.7 101 438.3 101 415.2 101C392 101 369 101 346 101C323 101 300 101 277 101C254 101 231 101 207.8 101C184.7 101 161.3 101 138.2 101C115 101 92 101 69 101C46 101 23 101 11.5 101L0 101Z" fill="#000000"></path></svg>