<svg id="visual" viewBox="0 0 900 100" width="900" height="100" xmlns="http://www.w3.org/2000/svg" xmlns:xlink="http://www.w3.org/1999/xlink" version="1.1"><rect x="0" y="0" width="900" height="100" fill="#111"></rect><path d="M0 89L11.5 89C23 89 46 89 69 88.8C92 88.7 115 88.3 138.2 79C161.3 69.7 184.7 51.3 207.8 46C231 40.7 254 48.3 277 49C300 49.7 323 43.3 346 40.8C369 38.3 392 39.7 415.2 45.5C438.3 51.3 461.7 61.7 484.8 65.5C508 69.3 531 66.7 554 67C577 67.3 600 70.7 623 72.7C646 74.7 669 75.3 692.2 74.5C715.3 73.7 738.7 71.3 761.8 64.8C785 58.3 808 47.7 831 47.3C854 47 877 57 888.5 62L900 67L900 0L888.5 0C877 0 854 0 831 0C808 0 785 0 761.8 0C738.7 0 715.3 0 692.2 0C669 0 646 0 623 0C600 0 577 0 554 0C531 0 508 0 484.8 0C461.7 0 438.3 0 415.2 0C392 0 369 0 346 0C323 0 300 0 277 0C254 0 231 0 207.8 0C184.7 0 161.3 0 138.2 0C115 0 92 0 69 0C46 0 23 0 11.5 0L0 0Z" fill="#8e05c2"></path><path d="M0 17L11.5 19.7C23 22.3 46 27.7 69 33C92 38.3 115 43.7 138.2 46.3C161.3 49 184.7 49 207.8 47.5C231 46 254 43 277 41.8C300 40.7 323 41.3 346 37.8C369 34.3 392 26.7 415.2 22.2C438.3 17.7 461.7 16.3 484.8 18C508 19.7 531 24.3 554 32.7C577 41 600 53 623 54.5C646 56 669 47 692.2 47C715.3 47 738.7 56 761.8 59.8C785 63.7 808 62.3 831 60.8C854 59.3 877 57.7 888.5 56.8L900 56L900 0L888.5 0C877 0 854 0 831 0C808 0 785 0 761.8 0C738.7 0 715.3 0 692.2 0C669 0 646 0 623 0C600 0 577 0 554 0C531 0 508 0 484.8 0C461.7 0 438.3 0 415.2 0C392 0 369 0 346 0C323 0 300 0 277 0C254 0 231 0 207.8 0C184.7 0 161.3 0 138.2 0C115 0 92 0 69 0C46 0 23 0 11.5 0L0 0Z" fill="#58008f"></path><path d="M0 32L11.5 32.7C23 33.3 46 34.7 69 35.3C92 36 115 36 138.2 31.2C161.3 26.3 184.7 16.7 207.8 13.8C231 11 254 15 277 18C300 21 323 23 346 23.8C369 24.7 392 24.3 415.2 24.2C438.3 24 461.7 24 484.8 27.2C508 30.3 531 36.7 554 37.2C577 37.7 600 32.3 623 31.7C646 31 669 35 692.2 32.8C715.3 30.7 738.7 22.3 761.8 21.2C785 20 808 26 831 28.3C854 30.7 877 29.3 888.5 28.7L900 28L900 0L888.5 0C877 0 854 0 831 0C808 0 785 0 761.8 0C738.7 0 715.3 0 692.2 0C669 0 646 0 623 0C600 0 577 0 554 0C531 0 508 0 484.8 0C461.7 0 438.3 0 415.2 0C392 0 369 0 346 0C323 0 300 0 277 0C254 0 231 0 207.8 0C184.7 0 161.3 0 138.2 0C115 0 92 0 69 0C46 0 23 0 11.5 0L0 0Z" fill="#000000"></path></svg>