<svg id="visual" viewBox="0 0 900 250" width="900" height="250" xmlns="http://www.w3.org/2000/svg" xmlns:xlink="http://www.w3.org/1999/xlink" version="1.1"><rect x="0" y="0" width="900" height="250" fill="#000000"></rect><path d="M0 145L15 142.8C30 140.7 60 136.3 90 135.8C120 135.3 150 138.7 180 125.5C210 112.3 240 82.7 270 79.3C300 76 330 99 360 103.2C390 107.3 420 92.7 450 85.5C480 78.3 510 78.7 540 82.7C570 86.7 600 94.3 630 101.5C660 108.7 690 115.3 720 106.5C750 97.7 780 73.3 810 72.2C840 71 870 93 885 104L900 115L900 251L885 251C870 251 840 251 810 251C780 251 750 251 720 251C690 251 660 251 630 251C600 251 570 251 540 251C510 251 480 251 450 251C420 251 390 251 360 251C330 251 300 251 270 251C240 251 210 251 180 251C150 251 120 251 90 251C60 251 30 251 15 251L0 251Z" fill="#8e05c2"></path><path d="M0 120L15 115.2C30 110.3 60 100.7 90 100.3C120 100 150 109 180 113.8C210 118.7 240 119.3 270 127.5C300 135.7 330 151.3 360 143.5C390 135.7 420 104.3 450 103.8C480 103.3 510 133.7 540 141.5C570 149.3 600 134.7 630 133.2C660 131.7 690 143.3 720 139.8C750 136.3 780 117.7 810 108.8C840 100 870 101 885 101.5L900 102L900 251L885 251C870 251 840 251 810 251C780 251 750 251 720 251C690 251 660 251 630 251C600 251 570 251 540 251C510 251 480 251 450 251C420 251 390 251 360 251C330 251 300 251 270 251C240 251 210 251 180 251C150 251 120 251 90 251C60 251 30 251 15 251L0 251Z" fill="#7203a8"></path><path d="M0 110L15 112.5C30 115 60 120 90 126.3C120 132.7 150 140.3 180 142.3C210 144.3 240 140.7 270 142.8C300 145 330 153 360 160.3C390 167.7 420 174.3 450 171.3C480 168.3 510 155.7 540 156.8C570 158 600 173 630 179.7C660 186.3 690 184.7 720 175.8C750 167 780 151 810 139C840 127 870 119 885 115L900 111L900 251L885 251C870 251 840 251 810 251C780 251 750 251 720 251C690 251 660 251 630 251C600 251 570 251 540 251C510 251 480 251 450 251C420 251 390 251 360 251C330 251 300 251 270 251C240 251 210 251 180 251C150 251 120 251 90 251C60 251 30 251 15 251L0 251Z" fill="#58008f"></path><path d="M0 176L15 172.5C30 169 60 162 90 163.5C120 165 150 175 180 178C210 181 240 177 270 172.7C300 168.3 330 163.7 360 160.3C390 157 420 155 450 162C480 169 510 185 540 193.7C570 202.3 600 203.7 630 195C660 186.3 690 167.7 720 167.5C750 167.3 780 185.7 810 194C840 202.3 870 200.7 885 199.8L900 199L900 251L885 251C870 251 840 251 810 251C780 251 750 251 720 251C690 251 660 251 630 251C600 251 570 251 540 251C510 251 480 251 450 251C420 251 390 251 360 251C330 251 300 251 270 251C240 251 210 251 180 251C150 251 120 251 90 251C60 251 30 251 15 251L0 251Z" fill="#360070"></path><path d="M0 186L15 190C30 194 60 202 90 205.5C120 209 150 208 180 209.5C210 211 240 215 270 218.2C300 221.3 330 223.7 360 219.5C390 215.3 420 204.7 450 201C480 197.3 510 200.7 540 204.3C570 208 600 212 630 216.5C660 221 690 226 720 222.3C750 218.7 780 206.3 810 202.2C840 198 870 202 885 204L900 206L900 251L885 251C870 251 840 251 810 251C780 251 750 251 720 251C690 251 660 251 630 251C600 251 570 251 540 251C510 251 480 251 450 251C420 251 390 251 360 251C330 251 300 251 270 251C240 251 210 251 180 251C150 251 120 251 90 251C60 251 30 251 15 251L0 251Z" fill="#000000"></path></svg>