<svg id="visual" viewBox="0 0 900 200" width="900" height="200" xmlns="http://www.w3.org/2000/svg" xmlns:xlink="http://www.w3.org/1999/xlink" version="1.1"><rect x="0" y="0" width="900" height="200" fill="#000000"></rect><path d="M0 146L129 98L257 176L386 153L514 133L643 169L771 114L900 133L900 0L771 0L643 0L514 0L386 0L257 0L129 0L0 0Z" fill="#8e05c2"></path><path d="M0 128L129 100L257 144L386 148L514 83L643 106L771 102L900 143L900 0L771 0L643 0L514 0L386 0L257 0L129 0L0 0Z" fill="#7012a1"></path><path d="M0 89L129 126L257 56L386 130L514 120L643 85L771 134L900 97L900 0L771 0L643 0L514 0L386 0L257 0L129 0L0 0Z" fill="#54147f"></path><path d="M0 79L129 109L257 38L386 48L514 59L643 109L771 34L900 87L900 0L771 0L643 0L514 0L386 0L257 0L129 0L0 0Z" fill="#3b125f"></path><path d="M0 17L129 56L257 23L386 42L514 80L643 50L771 65L900 55L900 0L771 0L643 0L514 0L386 0L257 0L129 0L0 0Z" fill="#250d3f"></path><path d="M0 42L129 8L257 3L386 12L514 51L643 20L771 48L900 49L900 0L771 0L643 0L514 0L386 0L257 0L129 0L0 0Z" fill="#150021"></path></svg>