<svg id="visual" viewBox="0 0 200 200" width="200" height="200" xmlns="http://www.w3.org/2000/svg" xmlns:xlink="http://www.w3.org/1999/xlink" version="1.1"><path d="M133 200L153 200L153 182L139 182L139 164L111 164L111 145L145 145L145 127L153 127L153 109L115 109L115 91L141 91L141 73L141 73L141 55L153 55L153 36L165 36L165 18L167 18L167 0L200 0L200 18L200 18L200 36L200 36L200 55L200 55L200 73L200 73L200 91L200 91L200 109L200 109L200 127L200 127L200 145L200 145L200 164L200 164L200 182L200 182L200 200L200 200Z" fill="#8e05c2"></path><path d="M105 200L103 200L103 182L89 182L89 164L77 164L77 145L117 145L117 127L119 127L119 109L97 109L97 91L99 91L99 73L109 73L109 55L103 55L103 36L125 36L125 18L135 18L135 0L168 0L168 18L166 18L166 36L154 36L154 55L142 55L142 73L142 73L142 91L116 91L116 109L154 109L154 127L146 127L146 145L112 145L112 164L140 164L140 182L154 182L154 200L134 200Z" fill="#7908a8"></path><path d="M75 200L83 200L83 182L75 182L75 164L53 164L53 145L85 145L85 127L89 127L89 109L63 109L63 91L69 91L69 73L93 73L93 55L77 55L77 36L93 36L93 18L101 18L101 0L136 0L136 18L126 18L126 36L104 36L104 55L110 55L110 73L100 73L100 91L98 91L98 109L120 109L120 127L118 127L118 145L78 145L78 164L90 164L90 182L104 182L104 200L106 200Z" fill="#64088f"></path><path d="M47 200L65 200L65 182L31 182L31 164L35 164L35 145L47 145L47 127L73 127L73 109L41 109L41 91L41 91L41 73L61 73L61 55L53 55L53 36L75 36L75 18L63 18L63 0L102 0L102 18L94 18L94 36L78 36L78 55L94 55L94 73L70 73L70 91L64 91L64 109L90 109L90 127L86 127L86 145L54 145L54 164L76 164L76 182L84 182L84 200L76 200Z" fill="#500777"></path><path d="M0 200L0 200L0 182L0 182L0 164L0 164L0 145L0 145L0 127L0 127L0 109L0 109L0 91L0 91L0 73L0 73L0 55L0 55L0 36L0 36L0 18L0 18L0 0L64 0L64 18L76 18L76 36L54 36L54 55L62 55L62 73L42 73L42 91L42 91L42 109L74 109L74 127L48 127L48 145L36 145L36 164L32 164L32 182L66 182L66 200L48 200Z" fill="#3e065f"></path></svg>