<svg id="visual" viewBox="0 0 900 200" width="900" height="200" xmlns="http://www.w3.org/2000/svg" xmlns:xlink="http://www.w3.org/1999/xlink" version="1.1"><rect x="0" y="0" width="900" height="200" fill="#000000"></rect><path d="M0 164L8.8 163.2C17.7 162.3 35.3 160.7 53 157.7C70.7 154.7 88.3 150.3 106 153.2C123.7 156 141.3 166 159 162.5C176.7 159 194.3 142 212 136.5C229.7 131 247.3 137 265 137C282.7 137 300.3 131 318 128.5C335.7 126 353.3 127 371 129.8C388.7 132.7 406.3 137.3 423.8 140.7C441.3 144 458.7 146 476.2 145.2C493.7 144.3 511.3 140.7 529 140.5C546.7 140.3 564.3 143.7 582 150.2C599.7 156.7 617.3 166.3 635 171.2C652.7 176 670.3 176 688 171.5C705.7 167 723.3 158 741 154.3C758.7 150.7 776.3 152.3 794 155.5C811.7 158.7 829.3 163.3 847 166.3C864.7 169.3 882.3 170.7 891.2 171.3L900 172L900 0L891.2 0C882.3 0 864.7 0 847 0C829.3 0 811.7 0 794 0C776.3 0 758.7 0 741 0C723.3 0 705.7 0 688 0C670.3 0 652.7 0 635 0C617.3 0 599.7 0 582 0C564.3 0 546.7 0 529 0C511.3 0 493.7 0 476.2 0C458.7 0 441.3 0 423.8 0C406.3 0 388.7 0 371 0C353.3 0 335.7 0 318 0C300.3 0 282.7 0 265 0C247.3 0 229.7 0 212 0C194.3 0 176.7 0 159 0C141.3 0 123.7 0 106 0C88.3 0 70.7 0 53 0C35.3 0 17.7 0 8.8 0L0 0Z" fill="#750e21"></path><path d="M0 131L8.8 125.3C17.7 119.7 35.3 108.3 53 109.3C70.7 110.3 88.3 123.7 106 127.8C123.7 132 141.3 127 159 128.5C176.7 130 194.3 138 212 142C229.7 146 247.3 146 265 142C282.7 138 300.3 130 318 130C335.7 130 353.3 138 371 135.5C388.7 133 406.3 120 423.8 115.2C441.3 110.3 458.7 113.7 476.2 119.5C493.7 125.3 511.3 133.7 529 133.2C546.7 132.7 564.3 123.3 582 122.8C599.7 122.3 617.3 130.7 635 130.8C652.7 131 670.3 123 688 123C705.7 123 723.3 131 741 132.7C758.7 134.3 776.3 129.7 794 130.2C811.7 130.7 829.3 136.3 847 138C864.7 139.7 882.3 137.3 891.2 136.2L900 135L900 0L891.2 0C882.3 0 864.7 0 847 0C829.3 0 811.7 0 794 0C776.3 0 758.7 0 741 0C723.3 0 705.7 0 688 0C670.3 0 652.7 0 635 0C617.3 0 599.7 0 582 0C564.3 0 546.7 0 529 0C511.3 0 493.7 0 476.2 0C458.7 0 441.3 0 423.8 0C406.3 0 388.7 0 371 0C353.3 0 335.7 0 318 0C300.3 0 282.7 0 265 0C247.3 0 229.7 0 212 0C194.3 0 176.7 0 159 0C141.3 0 123.7 0 106 0C88.3 0 70.7 0 53 0C35.3 0 17.7 0 8.8 0L0 0Z" fill="#640614"></path><path d="M0 108L8.8 109C17.7 110 35.3 112 53 108.8C70.7 105.7 88.3 97.3 106 93.7C123.7 90 141.3 91 159 92.7C176.7 94.3 194.3 96.7 212 94.3C229.7 92 247.3 85 265 86.3C282.7 87.7 300.3 97.3 318 102.8C335.7 108.3 353.3 109.7 371 106.3C388.7 103 406.3 95 423.8 91.8C441.3 88.7 458.7 90.3 476.2 91.3C493.7 92.3 511.3 92.7 529 90C546.7 87.3 564.3 81.7 582 81.8C599.7 82 617.3 88 635 92C652.7 96 670.3 98 688 96.8C705.7 95.7 723.3 91.3 741 86.8C758.7 82.3 776.3 77.7 794 77.2C811.7 76.7 829.3 80.3 847 80.7C864.7 81 882.3 78 891.2 76.5L900 75L900 0L891.2 0C882.3 0 864.7 0 847 0C829.3 0 811.7 0 794 0C776.3 0 758.7 0 741 0C723.3 0 705.7 0 688 0C670.3 0 652.7 0 635 0C617.3 0 599.7 0 582 0C564.3 0 546.7 0 529 0C511.3 0 493.7 0 476.2 0C458.7 0 441.3 0 423.8 0C406.3 0 388.7 0 371 0C353.3 0 335.7 0 318 0C300.3 0 282.7 0 265 0C247.3 0 229.7 0 212 0C194.3 0 176.7 0 159 0C141.3 0 123.7 0 106 0C88.3 0 70.7 0 53 0C35.3 0 17.7 0 8.8 0L0 0Z" fill="#530003"></path><path d="M0 69L8.8 66C17.7 63 35.3 57 53 59.5C70.7 62 88.3 73 106 76.3C123.7 79.7 141.3 75.3 159 72.8C176.7 70.3 194.3 69.7 212 71.8C229.7 74 247.3 79 265 77C282.7 75 300.3 66 318 65.8C335.7 65.7 353.3 74.3 371 75C388.7 75.7 406.3 68.3 423.8 68.3C441.3 68.3 458.7 75.7 476.2 75.7C493.7 75.7 511.3 68.3 529 62C546.7 55.7 564.3 50.3 582 52.8C599.7 55.3 617.3 65.7 635 67.3C652.7 69 670.3 62 688 57.2C705.7 52.3 723.3 49.7 741 50.2C758.7 50.7 776.3 54.3 794 58.7C811.7 63 829.3 68 847 71.5C864.7 75 882.3 77 891.2 78L900 79L900 0L891.2 0C882.3 0 864.7 0 847 0C829.3 0 811.7 0 794 0C776.3 0 758.7 0 741 0C723.3 0 705.7 0 688 0C670.3 0 652.7 0 635 0C617.3 0 599.7 0 582 0C564.3 0 546.7 0 529 0C511.3 0 493.7 0 476.2 0C458.7 0 441.3 0 423.8 0C406.3 0 388.7 0 371 0C353.3 0 335.7 0 318 0C300.3 0 282.7 0 265 0C247.3 0 229.7 0 212 0C194.3 0 176.7 0 159 0C141.3 0 123.7 0 106 0C88.3 0 70.7 0 53 0C35.3 0 17.7 0 8.8 0L0 0Z" fill="#410000"></path><path d="M0 19L8.8 21C17.7 23 35.3 27 53 27.7C70.7 28.3 88.3 25.7 106 28.2C123.7 30.7 141.3 38.3 159 37.3C176.7 36.3 194.3 26.7 212 22.3C229.7 18 247.3 19 265 24C282.7 29 300.3 38 318 41C335.7 44 353.3 41 371 35.5C388.7 30 406.3 22 423.8 19.2C441.3 16.3 458.7 18.7 476.2 24.7C493.7 30.7 511.3 40.3 529 41C546.7 41.7 564.3 33.3 582 28.3C599.7 23.3 617.3 21.7 635 24C652.7 26.3 670.3 32.7 688 36.7C705.7 40.7 723.3 42.3 741 43C758.7 43.7 776.3 43.3 794 41.7C811.7 40 829.3 37 847 38C864.7 39 882.3 44 891.2 46.5L900 49L900 0L891.2 0C882.3 0 864.7 0 847 0C829.3 0 811.7 0 794 0C776.3 0 758.7 0 741 0C723.3 0 705.7 0 688 0C670.3 0 652.7 0 635 0C617.3 0 599.7 0 582 0C564.3 0 546.7 0 529 0C511.3 0 493.7 0 476.2 0C458.7 0 441.3 0 423.8 0C406.3 0 388.7 0 371 0C353.3 0 335.7 0 318 0C300.3 0 282.7 0 265 0C247.3 0 229.7 0 212 0C194.3 0 176.7 0 159 0C141.3 0 123.7 0 106 0C88.3 0 70.7 0 53 0C35.3 0 17.7 0 8.8 0L0 0Z" fill="#000000"></path></svg>