<svg id="visual" viewBox="0 0 1200 900" width="1200" height="900" xmlns="http://www.w3.org/2000/svg" xmlns:xlink="http://www.w3.org/1999/xlink" version="1.1"><rect x="0" y="0" width="1200" height="900" fill="#000000"></rect><defs><linearGradient id="grad1_0" x1="25%" y1="0%" x2="100%" y2="100%"><stop offset="23.333333333333336%" stop-color="#000000" stop-opacity="1"></stop><stop offset="76.66666666666666%" stop-color="#000000" stop-opacity="1"></stop></linearGradient></defs><defs><linearGradient id="grad2_0" x1="0%" y1="0%" x2="75%" y2="100%"><stop offset="23.333333333333336%" stop-color="#000000" stop-opacity="1"></stop><stop offset="76.66666666666666%" stop-color="#000000" stop-opacity="1"></stop></linearGradient></defs><g transform="translate(1200, 0)"><path d="M0 487.5C-57.4 466.6 -114.8 445.7 -176.4 425.9C-238.1 406.1 -304 387.3 -344.7 344.7C-385.4 302.1 -400.8 235.6 -420.4 174.1C-439.9 112.7 -463.7 56.3 -487.5 0L0 0Z" fill="#3E065F"></path></g><g transform="translate(0, 900)"><path d="M0 -487.5C31 -403.2 62.1 -318.9 127.4 -307.7C192.8 -296.4 292.5 -358.1 344.7 -344.7C396.9 -331.4 401.7 -242.9 417.6 -173C433.5 -103 460.5 -51.5 487.5 0L0 0Z" fill="#3E065F"></path></g></svg>